<svg xmlns="http://www.w3.org/2000/svg" width="512" height="512" viewBox="0 0 512 512" fill="none">
<defs><radialGradient id="coreg" cx="0.5" cy="0.42" r="0.62"><stop offset="0" stop-color="#FFFFFF"/><stop offset="1" stop-color="#E9EDF7"/></radialGradient></defs>
<rect width="512" height="512" fill="#0B1020"/>
<path d="M 256.00 202.24 C 272.38 174.59 349.18 103.99 330.90 70.30 A 48.13 48.13 0 0 1 271.22 70.30 C 252.93 103.99 262.14 174.59 256.00 202.24 Z" fill="#FF4D8D"/>
<path d="M 302.56 229.12 C 334.69 229.48 434.24 260.69 454.27 228.01 A 48.13 48.13 0 0 1 424.43 176.33 C 386.11 177.33 329.57 220.62 302.56 229.12 Z" fill="#FF9E3D"/>
<path d="M 302.56 282.88 C 318.31 310.89 341.05 412.71 379.38 413.71 A 48.13 48.13 0 0 1 409.21 362.03 C 389.18 329.35 323.43 302.02 302.56 282.88 Z" fill="#FFCE2E"/>
<path d="M 256.00 309.76 C 239.62 337.41 162.82 408.01 181.10 441.70 A 48.13 48.13 0 0 1 240.78 441.70 C 259.07 408.01 249.86 337.41 256.00 309.76 Z" fill="#34E08A"/>
<path d="M 209.44 282.88 C 177.31 282.52 77.76 251.31 57.73 283.99 A 48.13 48.13 0 0 1 87.57 335.67 C 125.89 334.67 182.43 291.38 209.44 282.88 Z" fill="#33BFFF"/>
<path d="M 209.44 229.12 C 193.69 201.11 170.95 99.29 132.62 98.29 A 48.13 48.13 0 0 1 102.79 149.97 C 122.82 182.65 188.57 209.98 209.44 229.12 Z" fill="#9B6BFF"/>
<circle cx="256.0" cy="256.0" r="30.72" fill="url(#coreg)"/>
</svg>