<svg xmlns="http://www.w3.org/2000/svg" width="512" height="512" viewBox="0 0 512 512" fill="none">
<defs><radialGradient id="coreg" cx="0.5" cy="0.42" r="0.62"><stop offset="0" stop-color="#FFFFFF"/><stop offset="1" stop-color="#E9EDF7"/></radialGradient></defs>
<rect width="512" height="512" rx="115.2" fill="#0B1020"/>
<path d="M 256.00 199.01 C 270.54 169.71 343.49 94.87 324.10 59.16 A 51.02 51.02 0 0 1 260.84 59.16 C 241.46 94.87 259.69 169.71 256.00 199.01 Z" fill="#FF4D8D"/>
<path d="M 305.35 227.51 C 338.00 225.45 439.29 251.20 460.52 216.55 A 51.02 51.02 0 0 1 428.89 161.77 C 388.27 162.84 332.58 216.05 305.35 227.51 Z" fill="#FF9E3D"/>
<path d="M 305.35 284.49 C 323.46 311.74 351.80 412.33 392.42 413.40 A 51.02 51.02 0 0 1 424.05 358.61 C 402.82 323.97 328.89 302.34 305.35 284.49 Z" fill="#FFCE2E"/>
<path d="M 256.00 312.99 C 241.46 342.29 168.51 417.13 187.90 452.84 A 51.02 51.02 0 0 1 251.16 452.84 C 270.54 417.13 252.31 342.29 256.00 312.99 Z" fill="#34E08A"/>
<path d="M 206.65 284.49 C 174.00 286.55 72.71 260.80 51.48 295.45 A 51.02 51.02 0 0 1 83.11 350.23 C 123.73 349.16 179.42 295.95 206.65 284.49 Z" fill="#33BFFF"/>
<path d="M 206.65 227.51 C 188.54 200.26 160.20 99.67 119.58 98.60 A 51.02 51.02 0 0 1 87.95 153.39 C 109.18 188.03 183.11 209.66 206.65 227.51 Z" fill="#9B6BFF"/>
<circle cx="256.0" cy="256.0" r="32.56" fill="url(#coreg)"/>
</svg>