<svg xmlns="http://www.w3.org/2000/svg" width="863" height="514" viewBox="0 0 863.0 514.5" fill="none">
<defs></defs>
<g transform="translate(238.63,-4.63) scale(0.7519)">
<defs><radialGradient id="coreg" cx="0.5" cy="0.42" r="0.62"><stop offset="0" stop-color="#FFFFFF"/><stop offset="1" stop-color="#E9EDF7"/></radialGradient></defs>
<path d="M 256.00 202.24 C 272.38 174.59 349.18 103.99 330.90 70.30 A 48.13 48.13 0 0 1 271.22 70.30 C 252.93 103.99 262.14 174.59 256.00 202.24 Z" fill="#FF4D8D"/>
<path d="M 302.56 229.12 C 334.69 229.48 434.24 260.69 454.27 228.01 A 48.13 48.13 0 0 1 424.43 176.33 C 386.11 177.33 329.57 220.62 302.56 229.12 Z" fill="#FF9E3D"/>
<path d="M 302.56 282.88 C 318.31 310.89 341.05 412.71 379.38 413.71 A 48.13 48.13 0 0 1 409.21 362.03 C 389.18 329.35 323.43 302.02 302.56 282.88 Z" fill="#FFCE2E"/>
<path d="M 256.00 309.76 C 239.62 337.41 162.82 408.01 181.10 441.70 A 48.13 48.13 0 0 1 240.78 441.70 C 259.07 408.01 249.86 337.41 256.00 309.76 Z" fill="#34E08A"/>
<path d="M 209.44 282.88 C 177.31 282.52 77.76 251.31 57.73 283.99 A 48.13 48.13 0 0 1 87.57 335.67 C 125.89 334.67 182.43 291.38 209.44 282.88 Z" fill="#33BFFF"/>
<path d="M 209.44 229.12 C 193.69 201.11 170.95 99.29 132.62 98.29 A 48.13 48.13 0 0 1 102.79 149.97 C 122.82 182.65 188.57 209.98 209.44 229.12 Z" fill="#9B6BFF"/>
</g>
<g transform="translate(40.59,466.45) scale(0.6172)">
<path d="M68.56 -54.97Q46.78 -54.97 38.38 -50.00Q29.97 -45.03 29.97 -33.00Q29.97 -23.44 36.28 -17.81Q42.59 -12.22 53.41 -12.22Q68.38 -12.22 77.41 -22.81Q86.44 -33.41 86.44 -50.97L86.44 -54.97L68.56 -54.97ZM104.41 -62.41L104.41 -0.00L86.44 -0.00L86.44 -16.59Q80.28 -6.66 71.09 -1.91Q61.91 2.84 48.62 2.84Q31.84 2.84 21.91 -6.59Q12.00 -16.03 12.00 -31.84Q12.00 -50.28 24.34 -59.66Q36.72 -69.03 61.22 -69.03L86.44 -69.03L86.44 -70.81Q86.44 -83.22 78.28 -90.00Q70.12 -96.78 55.38 -96.78Q46.00 -96.78 37.09 -94.53Q28.22 -92.28 20.03 -87.78L20.03 -104.41Q29.88 -108.22 39.16 -110.09Q48.44 -112.00 57.22 -112.00Q80.97 -112.00 92.69 -99.69Q104.41 -87.41 104.41 -62.41Z M138.25 -109.38L156.22 -109.38L156.22 -0.00L138.25 -0.00L138.25 -109.38ZM138.25 -151.97L156.22 -151.97L156.22 -129.19L138.25 -129.19L138.25 -151.97Z M207.84 -140.44L207.84 -109.38L244.84 -109.38L244.84 -95.41L207.84 -95.41L207.84 -36.03Q207.84 -22.66 211.50 -18.84Q215.16 -15.03 226.41 -15.03L244.84 -15.03L244.84 -0.00L226.41 -0.00Q205.59 -0.00 197.69 -7.75Q189.78 -15.53 189.78 -36.03L189.78 -95.41L176.59 -95.41L176.59 -109.38L189.78 -109.38L189.78 -140.44L207.84 -140.44Z M321.06 -96.78Q306.62 -96.78 298.22 -85.50Q289.81 -74.22 289.81 -54.59Q289.81 -34.97 298.16 -23.69Q306.53 -12.41 321.06 -12.41Q335.44 -12.41 343.81 -23.72Q352.22 -35.06 352.22 -54.59Q352.22 -74.03 343.81 -85.41Q335.44 -96.78 321.06 -96.78ZM321.06 -112.00Q344.50 -112.00 357.88 -96.75Q371.28 -81.53 371.28 -54.59Q371.28 -27.75 357.88 -12.44Q344.50 2.84 321.06 2.84Q297.53 2.84 284.19 -12.44Q270.88 -27.75 270.88 -54.59Q270.88 -81.53 284.19 -96.75Q297.53 -112.00 321.06 -112.00Z M404.44 -151.97L422.50 -151.97L422.50 -62.22L476.12 -109.38L499.06 -109.38L441.06 -58.22L501.53 -0.00L478.09 -0.00L422.50 -53.41L422.50 -0.00L404.44 -0.00L404.44 -151.97Z M628.94 -59.19L628.94 -50.41L546.31 -50.41Q547.50 -31.84 557.50 -22.12Q567.50 -12.41 585.38 -12.41Q595.72 -12.41 605.44 -14.94Q615.16 -17.47 624.75 -22.56L624.75 -5.56Q615.06 -1.47 604.91 0.69Q594.75 2.84 584.31 2.84Q558.12 2.84 542.84 -12.38Q527.56 -27.62 527.56 -53.62Q527.56 -80.47 542.06 -96.22Q556.56 -112.00 581.19 -112.00Q603.25 -112.00 616.09 -97.78Q628.94 -83.59 628.94 -59.19ZM610.97 -64.47Q610.78 -79.19 602.72 -87.97Q594.66 -96.78 581.38 -96.78Q566.34 -96.78 557.31 -88.28Q548.28 -79.78 546.91 -64.34L610.97 -64.47Z M753.72 -66.03L753.72 -0.00L735.75 -0.00L735.75 -65.44Q735.75 -80.97 729.69 -88.66Q723.62 -96.38 711.53 -96.38Q696.97 -96.38 688.56 -87.09Q680.16 -77.84 680.16 -61.81L680.16 -0.00L662.09 -0.00L662.09 -109.38L680.16 -109.38L680.16 -92.38Q686.62 -102.25 695.34 -107.12Q704.09 -112.00 715.53 -112.00Q734.38 -112.00 744.03 -100.34Q753.72 -88.69 753.72 -66.03Z M857.28 -106.16L857.28 -89.16Q849.69 -93.06 841.47 -95.00Q833.28 -96.97 824.47 -96.97Q811.09 -96.97 804.41 -92.88Q797.72 -88.78 797.72 -80.56Q797.72 -74.31 802.50 -70.75Q807.28 -67.19 821.75 -63.97L827.91 -62.59Q847.03 -58.50 855.09 -51.03Q863.16 -43.56 863.16 -30.19Q863.16 -14.94 851.09 -6.03Q839.03 2.84 817.94 2.84Q809.16 2.84 799.62 1.12Q790.09 -0.59 779.56 -4.00L779.56 -22.56Q789.53 -17.38 799.19 -14.78Q808.84 -12.22 818.34 -12.22Q831.03 -12.22 837.84 -16.56Q844.69 -20.91 844.69 -28.81Q844.69 -36.12 839.75 -40.03Q834.84 -43.94 818.12 -47.56L811.88 -49.03Q795.19 -52.53 787.75 -59.81Q780.34 -67.09 780.34 -79.78Q780.34 -95.22 791.28 -103.59Q802.22 -112.00 822.34 -112.00Q832.28 -112.00 841.06 -110.53Q849.88 -109.09 857.28 -106.16Z M952.38 -151.97L952.38 -137.00L935.19 -137.00Q925.53 -137.00 921.75 -133.09Q918.00 -129.19 918.00 -119.03L918.00 -109.38L947.59 -109.38L947.59 -95.41L918.00 -95.41L918.00 -0.00L899.94 -0.00L899.94 -95.41L882.75 -95.41L882.75 -109.38L899.94 -109.38L899.94 -117.00Q899.94 -135.25 908.44 -143.59Q916.94 -151.97 935.38 -151.97L952.38 -151.97Z M986.22 -151.97L1004.19 -151.97L1004.19 -0.00L986.22 -0.00L986.22 -151.97Z M1036.19 -43.16L1036.19 -109.38L1054.16 -109.38L1054.16 -43.84Q1054.16 -28.31 1060.19 -20.53Q1066.25 -12.78 1078.38 -12.78Q1092.91 -12.78 1101.34 -22.06Q1109.81 -31.34 1109.81 -47.38L1109.81 -109.38L1127.78 -109.38L1127.78 -0.00L1109.81 -0.00L1109.81 -16.81Q1103.28 -6.84 1094.62 -2.00Q1086.00 2.84 1074.56 2.84Q1055.72 2.84 1045.94 -8.88Q1036.19 -20.59 1036.19 -43.16ZM1081.41 -112.00L1081.41 -112.00Z M1252.56 -109.38L1213.00 -56.16L1254.59 -0.00L1233.41 -0.00L1201.56 -42.97L1169.75 -0.00L1148.53 -0.00L1191.03 -57.22L1152.16 -109.38L1173.34 -109.38L1202.34 -70.41L1231.34 -109.38L1252.56 -109.38Z" fill="#11142A"/>
</g></svg>