<svg xmlns="http://www.w3.org/2000/svg" width="1673" height="348" viewBox="0 0 1673.3 348.0" fill="none">
<defs></defs>
<rect width="1673.3" height="348.0" rx="62.6" fill="#0B1020"/>
<g transform="translate(4.27,-4.79) scale(0.6971)">
<defs><radialGradient id="coreg" cx="0.5" cy="0.42" r="0.62"><stop offset="0" stop-color="#FFFFFF"/><stop offset="1" stop-color="#E9EDF7"/></radialGradient></defs>
<path d="M 256.00 202.24 C 272.38 174.59 349.18 103.99 330.90 70.30 A 48.13 48.13 0 0 1 271.22 70.30 C 252.93 103.99 262.14 174.59 256.00 202.24 Z" fill="#FF4D8D"/>
<path d="M 302.56 229.12 C 334.69 229.48 434.24 260.69 454.27 228.01 A 48.13 48.13 0 0 1 424.43 176.33 C 386.11 177.33 329.57 220.62 302.56 229.12 Z" fill="#FF9E3D"/>
<path d="M 302.56 282.88 C 318.31 310.89 341.05 412.71 379.38 413.71 A 48.13 48.13 0 0 1 409.21 362.03 C 389.18 329.35 323.43 302.02 302.56 282.88 Z" fill="#FFCE2E"/>
<path d="M 256.00 309.76 C 239.62 337.41 162.82 408.01 181.10 441.70 A 48.13 48.13 0 0 1 240.78 441.70 C 259.07 408.01 249.86 337.41 256.00 309.76 Z" fill="#34E08A"/>
<path d="M 209.44 282.88 C 177.31 282.52 77.76 251.31 57.73 283.99 A 48.13 48.13 0 0 1 87.57 335.67 C 125.89 334.67 182.43 291.38 209.44 282.88 Z" fill="#33BFFF"/>
<path d="M 209.44 229.12 C 193.69 201.11 170.95 99.29 132.62 98.29 A 48.13 48.13 0 0 1 102.79 149.97 C 122.82 182.65 188.57 209.98 209.44 229.12 Z" fill="#9B6BFF"/>
<circle cx="256.0" cy="256.0" r="30.72" fill="url(#coreg)"/>
</g>
<g transform="translate(398.54,246.80) scale(0.9985)">
<path d="M68.56 -54.97Q46.78 -54.97 38.38 -50.00Q29.97 -45.03 29.97 -33.00Q29.97 -23.44 36.28 -17.81Q42.59 -12.22 53.41 -12.22Q68.38 -12.22 77.41 -22.81Q86.44 -33.41 86.44 -50.97L86.44 -54.97L68.56 -54.97ZM104.41 -62.41L104.41 -0.00L86.44 -0.00L86.44 -16.59Q80.28 -6.66 71.09 -1.91Q61.91 2.84 48.62 2.84Q31.84 2.84 21.91 -6.59Q12.00 -16.03 12.00 -31.84Q12.00 -50.28 24.34 -59.66Q36.72 -69.03 61.22 -69.03L86.44 -69.03L86.44 -70.81Q86.44 -83.22 78.28 -90.00Q70.12 -96.78 55.38 -96.78Q46.00 -96.78 37.09 -94.53Q28.22 -92.28 20.03 -87.78L20.03 -104.41Q29.88 -108.22 39.16 -110.09Q48.44 -112.00 57.22 -112.00Q80.97 -112.00 92.69 -99.69Q104.41 -87.41 104.41 -62.41Z M136.25 -109.38L154.22 -109.38L154.22 -0.00L136.25 -0.00L136.25 -109.38ZM136.25 -151.97L154.22 -151.97L154.22 -129.19L136.25 -129.19L136.25 -151.97Z M203.84 -140.44L203.84 -109.38L240.84 -109.38L240.84 -95.41L203.84 -95.41L203.84 -36.03Q203.84 -22.66 207.50 -18.84Q211.16 -15.03 222.41 -15.03L240.84 -15.03L240.84 -0.00L222.41 -0.00Q201.59 -0.00 193.69 -7.75Q185.78 -15.53 185.78 -36.03L185.78 -95.41L172.59 -95.41L172.59 -109.38L185.78 -109.38L185.78 -140.44L203.84 -140.44Z M315.06 -96.78Q300.62 -96.78 292.22 -85.50Q283.81 -74.22 283.81 -54.59Q283.81 -34.97 292.16 -23.69Q300.53 -12.41 315.06 -12.41Q329.44 -12.41 337.81 -23.72Q346.22 -35.06 346.22 -54.59Q346.22 -74.03 337.81 -85.41Q329.44 -96.78 315.06 -96.78ZM315.06 -112.00Q338.50 -112.00 351.88 -96.75Q365.28 -81.53 365.28 -54.59Q365.28 -27.75 351.88 -12.44Q338.50 2.84 315.06 2.84Q291.53 2.84 278.19 -12.44Q264.88 -27.75 264.88 -54.59Q264.88 -81.53 278.19 -96.75Q291.53 -112.00 315.06 -112.00Z M396.44 -151.97L414.50 -151.97L414.50 -62.22L468.12 -109.38L491.06 -109.38L433.06 -58.22L493.53 -0.00L470.09 -0.00L414.50 -53.41L414.50 -0.00L396.44 -0.00L396.44 -151.97Z M618.94 -59.19L618.94 -50.41L536.31 -50.41Q537.50 -31.84 547.50 -22.12Q557.50 -12.41 575.38 -12.41Q585.72 -12.41 595.44 -14.94Q605.16 -17.47 614.75 -22.56L614.75 -5.56Q605.06 -1.47 594.91 0.69Q584.75 2.84 574.31 2.84Q548.12 2.84 532.84 -12.38Q517.56 -27.62 517.56 -53.62Q517.56 -80.47 532.06 -96.22Q546.56 -112.00 571.19 -112.00Q593.25 -112.00 606.09 -97.78Q618.94 -83.59 618.94 -59.19ZM600.97 -64.47Q600.78 -79.19 592.72 -87.97Q584.66 -96.78 571.38 -96.78Q556.34 -96.78 547.31 -88.28Q538.28 -79.78 536.91 -64.34L600.97 -64.47Z M741.72 -66.03L741.72 -0.00L723.75 -0.00L723.75 -65.44Q723.75 -80.97 717.69 -88.66Q711.62 -96.38 699.53 -96.38Q684.97 -96.38 676.56 -87.09Q668.16 -77.84 668.16 -61.81L668.16 -0.00L650.09 -0.00L650.09 -109.38L668.16 -109.38L668.16 -92.38Q674.62 -102.25 683.34 -107.12Q692.09 -112.00 703.53 -112.00Q722.38 -112.00 732.03 -100.34Q741.72 -88.69 741.72 -66.03Z M843.28 -106.16L843.28 -89.16Q835.69 -93.06 827.47 -95.00Q819.28 -96.97 810.47 -96.97Q797.09 -96.97 790.41 -92.88Q783.72 -88.78 783.72 -80.56Q783.72 -74.31 788.50 -70.75Q793.28 -67.19 807.75 -63.97L813.91 -62.59Q833.03 -58.50 841.09 -51.03Q849.16 -43.56 849.16 -30.19Q849.16 -14.94 837.09 -6.03Q825.03 2.84 803.94 2.84Q795.16 2.84 785.62 1.12Q776.09 -0.59 765.56 -4.00L765.56 -22.56Q775.53 -17.38 785.19 -14.78Q794.84 -12.22 804.34 -12.22Q817.03 -12.22 823.84 -16.56Q830.69 -20.91 830.69 -28.81Q830.69 -36.12 825.75 -40.03Q820.84 -43.94 804.12 -47.56L797.88 -49.03Q781.19 -52.53 773.75 -59.81Q766.34 -67.09 766.34 -79.78Q766.34 -95.22 777.28 -103.59Q788.22 -112.00 808.34 -112.00Q818.28 -112.00 827.06 -110.53Q835.88 -109.09 843.28 -106.16Z M936.38 -151.97L936.38 -137.00L919.19 -137.00Q909.53 -137.00 905.75 -133.09Q902.00 -129.19 902.00 -119.03L902.00 -109.38L931.59 -109.38L931.59 -95.41L902.00 -95.41L902.00 -0.00L883.94 -0.00L883.94 -95.41L866.75 -95.41L866.75 -109.38L883.94 -109.38L883.94 -117.00Q883.94 -135.25 892.44 -143.59Q900.94 -151.97 919.38 -151.97L936.38 -151.97Z M968.22 -151.97L986.19 -151.97L986.19 -0.00L968.22 -0.00L968.22 -151.97Z M1016.19 -43.16L1016.19 -109.38L1034.16 -109.38L1034.16 -43.84Q1034.16 -28.31 1040.19 -20.53Q1046.25 -12.78 1058.38 -12.78Q1072.91 -12.78 1081.34 -22.06Q1089.81 -31.34 1089.81 -47.38L1089.81 -109.38L1107.78 -109.38L1107.78 -0.00L1089.81 -0.00L1089.81 -16.81Q1083.28 -6.84 1074.62 -2.00Q1066.00 2.84 1054.56 2.84Q1035.72 2.84 1025.94 -8.88Q1016.19 -20.59 1016.19 -43.16ZM1061.41 -112.00L1061.41 -112.00Z M1230.56 -109.38L1191.00 -56.16L1232.59 -0.00L1211.41 -0.00L1179.56 -42.97L1147.75 -0.00L1126.53 -0.00L1169.03 -57.22L1130.16 -109.38L1151.34 -109.38L1180.34 -70.41L1209.34 -109.38L1230.56 -109.38Z" fill="#FFFFFF"/>
</g>
</svg>